<svg viewBox="0 0 24 24" fill="none" xmlns="http://www.w3.org/2000/svg">
  <!-- Sandal sole -->
  <path d="M7 18.5c0-1 .5-2 1.5-2.5l2-1c1-.5 2.5-.5 3.5 0l2 1c1 .5 1.5 1.5 1.5 2.5v.5a1 1 0 0 1-1 1H8a1 1 0 0 1-1-1v-.5Z" fill="#f59e0b" opacity="0.7"/>
  <!-- Sandal straps -->
  <path d="M9 16l1.5-3M15 16l-1.5-3M12 13v3" stroke="#f59e0b" stroke-width="1.2" stroke-linecap="round"/>
  <!-- Left wing -->
  <path d="M7.5 14C5 13 3.5 11 2.5 8.5c-.3-.8.4-1.2 1-.7C5 9 6.5 10.5 7.5 12" stroke="#f59e0b" stroke-width="1.3" stroke-linecap="round" fill="#f59e0b" fill-opacity="0.15"/>
  <path d="M6.5 12.5C4.5 11 3 8.5 2.8 6c0-.8.6-1 1-.4 1.2 1.5 2.5 3.5 3.2 5.5" stroke="#f59e0b" stroke-width="1.1" stroke-linecap="round" fill="#f59e0b" fill-opacity="0.1"/>
  <!-- Right wing -->
  <path d="M16.5 14c2.5-1 4-3 5-5.5.3-.8-.4-1.2-1-.7C19 9 17.5 10.5 16.5 12" stroke="#f59e0b" stroke-width="1.3" stroke-linecap="round" fill="#f59e0b" fill-opacity="0.15"/>
  <path d="M17.5 12.5c2-1.5 3.5-4 3.7-6.5 0-.8-.6-1-1-.4-1.2 1.5-2.5 3.5-3.2 5.5" stroke="#f59e0b" stroke-width="1.1" stroke-linecap="round" fill="#f59e0b" fill-opacity="0.1"/>
</svg>
